<svg xmlns="http://www.w3.org/2000/svg" xmlns:xlink="http://www.w3.org/1999/xlink" 
  x="0px" 
  y="0px"
	width="100%" 
  viewBox="0 0 2000 2000" 
>
  <path fill="none" opacity="1.000000" stroke="none" 
	d="
M1310.000000,2001.000000 
	C873.333313,2001.000000 437.166656,2001.000000 1.000000,2001.000000 
	C1.000000,1334.333374 1.000000,667.666687 1.000000,1.000000 
	C667.666687,1.000000 1334.333374,1.000000 2001.000000,1.000000 
	C2001.000000,667.666687 2001.000000,1334.333374 2001.000000,2001.000000 
	C1770.833374,2001.000000 1540.666626,2001.000000 1310.000000,2001.000000 
M506.279266,597.049561 
	C489.946869,591.838562 473.271362,587.980347 456.156097,587.126953 
	C436.927185,586.168335 417.793518,587.322571 398.917938,591.922119 
	C379.356720,596.688721 360.743195,603.865051 343.527893,614.098572 
	C325.780121,624.648621 310.691071,638.706848 296.681519,653.793274 
	C291.641388,659.220825 286.735931,665.065613 283.150757,671.490967 
	C275.824371,684.621338 268.823669,698.007874 262.817261,711.780945 
	C255.691818,728.120056 252.194305,745.672058 251.208160,763.359680 
	C249.908127,786.677429 250.989456,809.897766 257.839661,832.646729 
	C263.119019,850.179138 270.130432,866.875549 279.854950,882.237305 
	C289.339752,897.220337 300.526855,910.904663 314.010223,922.763306 
	C325.196838,932.601929 336.994781,941.410217 350.033173,948.443481 
	C368.570190,958.442810 388.107574,965.425659 409.005219,969.341492 
	C427.897919,972.881653 446.687439,977.718323 464.933563,983.761353 
	C484.703064,990.308960 504.120361,998.189758 523.089294,1006.813232 
	C544.420837,1016.510620 564.639648,1028.419067 583.203796,1042.899170 
	C595.763611,1052.695801 608.813965,1061.945435 620.689636,1072.513306 
	C631.441223,1082.081055 641.359924,1092.702515 650.808899,1103.586060 
	C662.567505,1117.129761 674.630066,1130.651978 684.467590,1145.564697 
	C699.594849,1168.496338 713.466309,1192.310181 726.845581,1216.321045 
	C735.046814,1231.038940 741.879456,1246.596680 748.355835,1262.180786 
	C758.518005,1286.633911 768.568237,1311.179077 777.342590,1336.150269 
	C785.497009,1359.357300 792.138123,1383.109009 799.039612,1406.739380 
	C804.962952,1427.020874 810.397095,1447.447021 815.890503,1467.851440 
	C820.714050,1485.767822 828.279846,1502.401611 838.377563,1517.945435 
	C847.931335,1532.651855 858.802673,1546.207642 872.161743,1557.663452 
	C877.002930,1561.814941 881.497681,1566.474976 886.741150,1570.032227 
	C900.827393,1579.588867 915.435120,1588.204590 931.504333,1594.253662 
	C951.390808,1601.739258 971.904968,1605.898560 993.038635,1606.929932 
	C1006.729431,1607.597900 1020.318909,1606.337036 1033.901733,1604.138306 
	C1051.388184,1601.307495 1067.980957,1595.880737 1083.935059,1588.488159 
	C1096.613403,1582.613159 1108.742554,1575.609619 1119.243896,1566.266113 
	C1129.111816,1557.485962 1139.469971,1549.035767 1148.070801,1539.105347 
	C1160.480835,1524.776489 1171.042480,1508.915039 1177.912720,1491.035889 
	C1182.002197,1480.393433 1185.806152,1469.597534 1188.955566,1458.645508 
	C1198.693237,1424.783936 1207.686890,1390.704956 1217.720947,1356.933716 
	C1222.642456,1340.369629 1228.739746,1324.104858 1235.166992,1308.049683 
	C1245.264282,1282.826172 1255.892944,1257.808594 1266.711426,1232.883789 
	C1270.720337,1223.647827 1275.813599,1214.873657 1280.572510,1205.974487 
	C1284.625488,1198.395752 1288.586304,1190.737183 1293.157715,1183.472534 
	C1301.936890,1169.521240 1310.555298,1155.410400 1320.285156,1142.131104 
	C1331.274902,1127.132324 1342.915649,1112.536011 1355.217407,1098.597778 
	C1364.415771,1088.175781 1374.744019,1078.654419 1385.237793,1069.498169 
	C1396.991699,1059.242310 1409.041870,1049.201538 1421.778198,1040.223389 
	C1444.768433,1024.016968 1469.272339,1010.377625 1495.216797,999.286682 
	C1520.180054,988.615234 1545.830322,980.266724 1572.208374,973.960571 
	C1591.387085,969.375488 1611.347534,967.429565 1629.384399,958.884155 
	C1643.300049,952.291260 1657.317139,945.530762 1670.113647,937.067383 
	C1682.409302,928.935303 1693.940063,919.346497 1703.107178,907.419189 
	C1707.755737,901.370789 1712.711792,895.553284 1717.235229,889.415100 
	C1726.522217,876.812683 1733.211792,862.800171 1738.936035,848.298035 
	C1745.357666,832.029419 1749.756104,815.067749 1750.741089,797.755920 
	C1752.095093,773.956970 1751.045288,750.234924 1744.253174,726.887329 
	C1736.278442,699.474487 1723.286621,674.928955 1704.768311,653.521057 
	C1696.063477,643.458069 1685.772339,634.611389 1675.422485,626.166687 
	C1662.205566,615.382751 1647.264771,607.300293 1631.365601,600.900391 
	C1612.803833,593.428772 1593.536865,588.572205 1573.743408,587.199280 
	C1554.391479,585.856995 1534.950562,586.983765 1515.843872,591.462219 
	C1497.790649,595.693665 1480.379272,601.841309 1464.609863,611.394165 
	C1451.578003,619.288635 1439.280884,628.595520 1427.524902,638.323792 
	C1420.124023,644.448120 1414.024658,652.258789 1407.856445,659.737671 
	C1390.510010,680.770508 1378.344971,704.651123 1372.202881,731.135681 
	C1368.093506,748.855164 1366.189697,767.076416 1362.952881,785.010681 
	C1359.976929,801.500183 1356.884399,817.983643 1353.224854,834.331360 
	C1347.204224,861.226318 1339.858154,887.777100 1329.907227,913.518066 
	C1324.535767,927.412903 1319.181519,941.355408 1312.899658,954.848206 
	C1302.443970,977.305664 1290.774780,999.173340 1275.841187,1019.050720 
	C1267.413818,1030.267822 1258.877808,1041.490356 1249.433228,1051.836182 
	C1233.772949,1068.990967 1216.237549,1084.196899 1197.510864,1097.978516 
	C1176.614380,1113.357056 1155.936646,1129.123169 1132.106079,1139.872803 
	C1120.885254,1144.934326 1109.633057,1150.181641 1097.926392,1153.848022 
	C1082.499512,1158.679932 1066.734741,1162.651733 1050.883179,1165.840698 
	C1037.967407,1168.439087 1024.744995,1170.245605 1011.595581,1170.743042 
	C998.634277,1171.233643 985.554932,1170.053589 972.600037,1168.834229 
	C960.959656,1167.738770 949.267883,1166.278809 937.863098,1163.775269 
	C912.132690,1158.127441 887.249512,1149.456665 864.021057,1137.151855 
	C848.159790,1128.749634 833.226196,1118.389648 818.628845,1107.863525 
	C802.534485,1096.257812 786.742493,1084.092163 771.871887,1070.976440 
	C760.772278,1061.186646 751.100342,1049.718140 741.230835,1038.607910 
	C725.545105,1020.950439 713.112305,1000.971558 701.851746,980.332458 
	C689.266235,957.265015 678.603882,933.266907 670.019287,908.404724 
	C659.573120,878.151245 650.633850,847.472290 645.012817,815.912231 
	C641.269470,794.894958 637.169678,773.923035 634.165894,752.797729 
	C631.676575,735.291077 627.216736,718.483459 620.050232,702.404785 
	C607.122009,673.399231 588.639221,648.710632 563.565369,628.882996 
	C546.347534,615.267639 527.391724,605.137085 506.279266,597.049561 
M1193.875610,597.110962 
	C1193.270630,585.711670 1192.930542,574.290710 1192.000854,562.917969 
	C1190.451660,543.963989 1185.005493,525.885864 1177.269897,508.690704 
	C1164.190674,479.617920 1145.141113,454.970795 1119.848267,435.307678 
	C1100.638428,420.373596 1079.388306,409.572693 1056.108765,402.437988 
	C1029.309814,394.224670 1001.933044,392.958771 974.491577,396.284912 
	C950.453430,399.198547 927.642761,406.934357 906.504395,419.154205 
	C887.205017,430.310883 870.059875,443.908752 855.414124,460.875458 
	C841.789612,476.659210 830.805786,493.924652 822.973206,513.160583 
	C810.007202,545.003601 805.326294,577.926270 809.829285,612.211243 
	C812.565186,633.041199 818.196777,652.946594 827.398804,671.676025 
	C838.253418,693.769043 852.753479,713.230225 871.165894,729.888794 
	C887.655823,744.808044 905.960571,756.509827 926.352356,765.133972 
	C946.314331,773.576355 967.189941,778.553833 988.739624,779.835022 
	C1005.769836,780.847534 1022.772034,779.774597 1039.626831,776.157288 
	C1080.071777,767.477173 1114.576294,748.704712 1142.622559,718.024170 
	C1157.374268,701.886841 1169.730225,684.291443 1177.870972,664.006287 
	C1181.901001,653.964172 1185.490601,643.620972 1187.939087,633.101990 
	C1190.619263,621.587708 1191.752686,609.713318 1193.875610,597.110962 
z"/>
  <path fill="#4FC08D" opacity="1.000000" stroke="none" 
	d="
M506.632996,597.243042 
	C527.391724,605.137085 546.347534,615.267639 563.565369,628.882996 
	C588.639221,648.710632 607.122009,673.399231 620.050232,702.404785 
	C627.216736,718.483459 631.676575,735.291077 634.165894,752.797729 
	C637.169678,773.923035 641.269470,794.894958 645.012817,815.912231 
	C650.633850,847.472290 659.573120,878.151245 670.019287,908.404724 
	C678.603882,933.266907 689.266235,957.265015 701.851746,980.332458 
	C713.112305,1000.971558 725.545105,1020.950439 741.230835,1038.607910 
	C751.100342,1049.718140 760.772278,1061.186646 771.871887,1070.976440 
	C786.742493,1084.092163 802.534485,1096.257812 818.628845,1107.863525 
	C833.226196,1118.389648 848.159790,1128.749634 864.021057,1137.151855 
	C887.249512,1149.456665 912.132690,1158.127441 937.863098,1163.775269 
	C949.267883,1166.278809 960.959656,1167.738770 972.600037,1168.834229 
	C985.554932,1170.053589 998.634277,1171.233643 1011.595581,1170.743042 
	C1024.744995,1170.245605 1037.967407,1168.439087 1050.883179,1165.840698 
	C1066.734741,1162.651733 1082.499512,1158.679932 1097.926392,1153.848022 
	C1109.633057,1150.181641 1120.885254,1144.934326 1132.106079,1139.872803 
	C1155.936646,1129.123169 1176.614380,1113.357056 1197.510864,1097.978516 
	C1216.237549,1084.196899 1233.772949,1068.990967 1249.433228,1051.836182 
	C1258.877808,1041.490356 1267.413818,1030.267822 1275.841187,1019.050720 
	C1290.774780,999.173340 1302.443970,977.305664 1312.899658,954.848206 
	C1319.181519,941.355408 1324.535767,927.412903 1329.907227,913.518066 
	C1339.858154,887.777100 1347.204224,861.226318 1353.224854,834.331360 
	C1356.884399,817.983643 1359.976929,801.500183 1362.952881,785.010681 
	C1366.189697,767.076416 1368.093506,748.855164 1372.202881,731.135681 
	C1378.344971,704.651123 1390.510010,680.770508 1407.856445,659.737671 
	C1414.024658,652.258789 1420.124023,644.448120 1427.524902,638.323792 
	C1439.280884,628.595520 1451.578003,619.288635 1464.609863,611.394165 
	C1480.379272,601.841309 1497.790649,595.693665 1515.843872,591.462219 
	C1534.950562,586.983765 1554.391479,585.856995 1573.743408,587.199280 
	C1593.536865,588.572205 1612.803833,593.428772 1631.365601,600.900391 
	C1647.264771,607.300293 1662.205566,615.382751 1675.422485,626.166687 
	C1685.772339,634.611389 1696.063477,643.458069 1704.768311,653.521057 
	C1723.286621,674.928955 1736.278442,699.474487 1744.253174,726.887329 
	C1751.045288,750.234924 1752.095093,773.956970 1750.741089,797.755920 
	C1749.756104,815.067749 1745.357666,832.029419 1738.936035,848.298035 
	C1733.211792,862.800171 1726.522217,876.812683 1717.235229,889.415100 
	C1712.711792,895.553284 1707.755737,901.370789 1703.107178,907.419189 
	C1693.940063,919.346497 1682.409302,928.935303 1670.113647,937.067383 
	C1657.317139,945.530762 1643.300049,952.291260 1629.384399,958.884155 
	C1611.347534,967.429565 1591.387085,969.375488 1572.208374,973.960571 
	C1545.830322,980.266724 1520.180054,988.615234 1495.216797,999.286682 
	C1469.272339,1010.377625 1444.768433,1024.016968 1421.778198,1040.223389 
	C1409.041870,1049.201538 1396.991699,1059.242310 1385.237793,1069.498169 
	C1374.744019,1078.654419 1364.415771,1088.175781 1355.217407,1098.597778 
	C1342.915649,1112.536011 1331.274902,1127.132324 1320.285156,1142.131104 
	C1310.555298,1155.410400 1301.936890,1169.521240 1293.157715,1183.472534 
	C1288.586304,1190.737183 1284.625488,1198.395752 1280.572510,1205.974487 
	C1275.813599,1214.873657 1270.720337,1223.647827 1266.711426,1232.883789 
	C1255.892944,1257.808594 1245.264282,1282.826172 1235.166992,1308.049683 
	C1228.739746,1324.104858 1222.642456,1340.369629 1217.720947,1356.933716 
	C1207.686890,1390.704956 1198.693237,1424.783936 1188.955566,1458.645508 
	C1185.806152,1469.597534 1182.002197,1480.393433 1177.912720,1491.035889 
	C1171.042480,1508.915039 1160.480835,1524.776489 1148.070801,1539.105347 
	C1139.469971,1549.035767 1129.111816,1557.485962 1119.243896,1566.266113 
	C1108.742554,1575.609619 1096.613403,1582.613159 1083.935059,1588.488159 
	C1067.980957,1595.880737 1051.388184,1601.307495 1033.901733,1604.138306 
	C1020.318909,1606.337036 1006.729431,1607.597900 993.038635,1606.929932 
	C971.904968,1605.898560 951.390808,1601.739258 931.504333,1594.253662 
	C915.435120,1588.204590 900.827393,1579.588867 886.741150,1570.032227 
	C881.497681,1566.474976 877.002930,1561.814941 872.161743,1557.663452 
	C858.802673,1546.207642 847.931335,1532.651855 838.377563,1517.945435 
	C828.279846,1502.401611 820.714050,1485.767822 815.890503,1467.851440 
	C810.397095,1447.447021 804.962952,1427.020874 799.039612,1406.739380 
	C792.138123,1383.109009 785.497009,1359.357300 777.342590,1336.150269 
	C768.568237,1311.179077 758.518005,1286.633911 748.355835,1262.180786 
	C741.879456,1246.596680 735.046814,1231.038940 726.845581,1216.321045 
	C713.466309,1192.310181 699.594849,1168.496338 684.467590,1145.564697 
	C674.630066,1130.651978 662.567505,1117.129761 650.808899,1103.586060 
	C641.359924,1092.702515 631.441223,1082.081055 620.689636,1072.513306 
	C608.813965,1061.945435 595.763611,1052.695801 583.203796,1042.899170 
	C564.639648,1028.419067 544.420837,1016.510620 523.089294,1006.813232 
	C504.120361,998.189758 484.703064,990.308960 464.933563,983.761353 
	C446.687439,977.718323 427.897919,972.881653 409.005219,969.341492 
	C388.107574,965.425659 368.570190,958.442810 350.033173,948.443481 
	C336.994781,941.410217 325.196838,932.601929 314.010223,922.763306 
	C300.526855,910.904663 289.339752,897.220337 279.854950,882.237305 
	C270.130432,866.875549 263.119019,850.179138 257.839661,832.646729 
	C250.989456,809.897766 249.908127,786.677429 251.208160,763.359680 
	C252.194305,745.672058 255.691818,728.120056 262.817261,711.780945 
	C268.823669,698.007874 275.824371,684.621338 283.150757,671.490967 
	C286.735931,665.065613 291.641388,659.220825 296.681519,653.793274 
	C310.691071,638.706848 325.780121,624.648621 343.527893,614.098572 
	C360.743195,603.865051 379.356720,596.688721 398.917938,591.922119 
	C417.793518,587.322571 436.927185,586.168335 456.156097,587.126953 
	C473.271362,587.980347 489.946869,591.838562 506.632996,597.243042 
z"/>
  <path fill="#35495E" opacity="1.000000" stroke="none" 
	d="
M1193.717896,597.553467 
	C1191.752686,609.713318 1190.619263,621.587708 1187.939087,633.101990 
	C1185.490601,643.620972 1181.901001,653.964172 1177.870972,664.006287 
	C1169.730225,684.291443 1157.374268,701.886841 1142.622559,718.024170 
	C1114.576294,748.704712 1080.071777,767.477173 1039.626831,776.157288 
	C1022.772034,779.774597 1005.769836,780.847534 988.739624,779.835022 
	C967.189941,778.553833 946.314331,773.576355 926.352356,765.133972 
	C905.960571,756.509827 887.655823,744.808044 871.165894,729.888794 
	C852.753479,713.230225 838.253418,693.769043 827.398804,671.676025 
	C818.196777,652.946594 812.565186,633.041199 809.829285,612.211243 
	C805.326294,577.926270 810.007202,545.003601 822.973206,513.160583 
	C830.805786,493.924652 841.789612,476.659210 855.414124,460.875458 
	C870.059875,443.908752 887.205017,430.310883 906.504395,419.154205 
	C927.642761,406.934357 950.453430,399.198547 974.491577,396.284912 
	C1001.933044,392.958771 1029.309814,394.224670 1056.108765,402.437988 
	C1079.388306,409.572693 1100.638428,420.373596 1119.848267,435.307678 
	C1145.141113,454.970795 1164.190674,479.617920 1177.269897,508.690704 
	C1185.005493,525.885864 1190.451660,543.963989 1192.000854,562.917969 
	C1192.930542,574.290710 1193.270630,585.711670 1193.717896,597.553467 
z"/>
</svg>